/* XPM */
static char *_79ff880048d4b179fc239ee8f01a331crB0Qpb8dVX12ZQV[] = {
/* columns rows colors chars-per-pixel */
"120 30 77 1 ",
"  c #2A3345",
". c #2D354A",
"X c #2D3A4E",
"o c #30374C",
"O c #323A4D",
"+ c #2E3652",
"@ c #2E3C52",
"# c #303754",
"$ c #333D54",
"% c #383F54",
"& c #353E59",
"* c #383F59",
"= c #354156",
"- c #394156",
"; c #36425B",
": c #3B445C",
"> c #3E485E",
", c #374561",
"< c #3C4661",
"1 c #3D4964",
"2 c #374769",
"3 c #384668",
"4 c #3D4B69",
"5 c #3F5671",
"6 c #41495F",
"7 c #404764",
"8 c #434C64",
"9 c #484F66",
"0 c #444E69",
"q c #484F6A",
"w c #465165",
"e c #495166",
"r c #45516C",
"t c #4A536C",
"y c #48556F",
"u c #4C546C",
"i c #4F576D",
"p c #4D546E",
"a c #4D576E",
"s c #50586E",
"d c #475570",
"f c #4B5772",
"g c #4C5570",
"h c #4E5670",
"j c #435973",
"k c #4D5872",
"l c #4E5974",
"z c #4D5D7A",
"x c #505772",
"c c #525A73",
"v c #545C72",
"b c #555E73",
"n c #535B74",
"m c #535B76",
"M c #535D77",
"N c #555D74",
"B c #565E78",
"V c #585F79",
"C c #4F607A",
"Z c #546077",
"A c #586073",
"S c #596077",
"D c #55627B",
"F c #59617B",
"G c #5C6378",
"H c #5E667A",
"J c #5A627C",
"K c #5A637C",
"L c #5D657E",
"P c #5D687F",
"I c #60687F",
"U c #5C6780",
"Y c #5D6880",
"T c #626C83",
"R c #646C83",
"E c #656D85",
"W c #647084",
/* pixels */
"#0hncNNcht00811780ethccnNVVNp%o7qpcppteeee0078::880000880ee-$qcvvcccvvSvvvcpppepppsscvAce--pvNNNNFHHGHFNchhpptettpccMl1.",
":FELBBBFJLLLJNhq80qphhhcnnVBp$$tBBlr008877111::::1441111eNl-%pFNhhhhhhhpyrtpcnNBnclllhcNh-6LRLJJFFDNclhhhhhlnnhrq0rrnF0#",
"$xJh07770000077711<;;*;111708..8th7:;;;:<1:117110001<:;;1ht$#8ht08111111117800008111110t0$%hBxq711,;;;;;;;;;<1117717tx7+",
".*:*$$$$$$$$$#..####$$$$$$**$..$$$$$$$$$$$$+..+$:::$$$$*:::$#::::$$$$$;::$##$:;::;;:::;::#X**&####+##$&$++$$$&******:;*.",
"pte087777770t0=-hMllllllhptwwww07870800rhle> opNcNMMMMllppee000eeeppppcNveOOppeeppxnNNccMchptq7,&;;<0hht$$qhptttqqthhhcc",
"711<<<,;;;,4lh=:MYcttphptr00000000wrw0770lzeo=nM0rrrr441<::18800wwthhptnNe.Ochtetttr0111111111;&&;<0hlnh--phht7170thhht0",
"$$@@$&;;;;;,88XX0t8;;:<11111111:::::::;;;1e1..:1;;*$$$$$$*;;;;;;:<:::;;001  871;;*&$$$@@@@@@@@$;;;:;;117o$8717111::;**&$",
"O:::::68818886$$:::::::::::*$XX$$$*:::::::>:$$::::::::-$$::oo$:::::::::>::oO-:-$+XX+####+ .$--::-=$$=::>::6:::::>::>6::o",
"8DTDDDDDJJJJMptplMDDDBBMBFJBh-:hBFLJJDDDDDDDDDDDDDBNNncnnLF::MYPDDJJDZzlppplzzlhr08880pct-:FLMlcnchw870thlllMMMMcclnJDe:",
":lDj5r4rrr0111808787117110lnt$:nYNnBBMMMMMMzlfhrrrrtthcncFF::hcp8888880008411411111111wlt--hn8111111<;;;;;;;<<11<<<<0c0$",
"O:1;;;;;;****;;;::;;;;;;;;107o#ex011111111<:::::1118711<:10$o:::$&;;*;;;;;;;;;;;;*$$$;:1:Xo8:;$&&$$$$$$$$$=;;$$$$$*;:88o",
">800etpppppe0:oo::;::8888800000epppspeeeeee8-:e00800etttttpe8088888808888>$$100ee08889e00868:::>8>>>>>>:o$8888ewtpppw076",
"DDUUYTTLJBnJB0o$FEBht000wthfllMDDDUUJJJJJYEN-6JlplMJUUJJJJJDDDDDDDDDDDMDJn:6DLDBNnlhhptt0wtphlffddrrhNNe$:BFzzCzzMllffnM",
"rrtt0811111rh0o$BDrrdr4411111<<<<<111<<11tJM==Mhrr004444444400000000ryrpBh-:lp1<;;;;;;;,<1<<<,;;;;,11tc0.$yhr111111100rr",
";;;;;*;;;;;;::o$81:::;;;;;;;;*$$$$*$$$$$;:6:..::;$$$$&**;$$@+$&;;;;;;;;;::oo:=$++@@$$$@@XXXXX+X@$$$$=::=  ;;;$$$$$$$$$*$",
"$pvvppew00008::60pppsscpeeecpO.:00880weppeeee0eew08::>88ee>..8ppssstee8888888>::-:>>8888-  >88>80w888>>8000ee9e0088::6:.",
":LTDMhdrr0qrqq0711770thpthpvSoohDhpphhlBJlr81170rphhtw87tFeo%NLnhhhphlhpw0wrrrydrrrr080ceoOth01781117000000008711180eheo",
"-Nn8411;;;;;;*******&;;110hNco.0p1<<<::<1<::;;;;;;<111118h7..0011<<<<1111<<;;;;;,<11111w0oo88<;;;;111<<,;;;;&&&&**;:8t0o",
"o>6::::$$$$$$#XX$$$$:::::::86oo::::::======$oX$==$$$$$###$#  $==$$$=$==@@@XX@@$$$$$$$$$==  $$$$$$$$=;;$$XX$====;:::;:-:o",
"eescccccccNnc8O-eepptee00000wwpphllDFFFDNMFc$oeSvcvccclpe008880wttphppcNh0$$0cchllnMMMncpeeeeepplNNDDFFpO-cFFDFFHGFBNspe",
"pe00000000ehNp%:lnr0877778111:<<<<111800wrBcO.tYNt080rwwwww00111111144rBnt$$wnn0000rryrr011<18rhlh077pFe.opBtwtphxcnVJFN",
"::::::::;:::e8o$00:;;:;;:::;;;;=&$$$$$$;;;08  7cp881::;;;;;;;;;;;;::<<1w07#o7e0::::::<111111111<:;;;;1w1 .8e1;;;;::::>1>",
".$$$$$$$$-=$-$.o$-=-$=======$..=:::::>>>>>6:O$:66888e08::::$$=:::::>>1811>:::886::=$$=---oo=:::==$$=::::##::::::::-=$$X ",
"#0e088888877878wwwte000008the.OpBNnBFJJFceeepcNDNNNNNnccnII8:hLNccppttppnBDBMNMnlpe8>>8pt-$enh000ehnnhppppphhcNct0wrpp: ",
"o0t01111<<:<<<<111<<<:;;;1ene.oete0w07:;;;17778811111180epp-$pFp1;==;18wttw0871:::::::>t0$$0ht1170r41<<::<11801:<1118p: ",
"$08;;;;=$$$$$$$$@@@@==;;;::8: O6:;$$$XX+$$$$$$@@$$$$$$*$*::oo70:$$=;;;==$$$$$$=$=$$$$$=::..:1:;;;===$$=;;;;;;$$;;;;;:6: ",
"ee00000e888te>oO:>>:=;;:8eete8wte8866::::::-..-::>>>>>>:::::::::::::::88>:oo:6800000088886:::::880000008o$:88etppppppppe",
"NMBBBJJJBMJEYn:-nYDhnBJYTWETPLLJJDDDDMMMlnFn--hJcphchpptpppppppttt007700hh-:NTnMBBBnhhllMMMnlhrwrhlDJJFh-:BTEJDDDzzzDTEY",
"rtrrrrrrr0tnNt$$tBl0000071111111144rrhzMFLTJ:-ent080000078811111::11::;:70$$hB0<<<<<,;,,,,,<<111<;,<10xt$$plzr442334rrrr",
";;;;:::;;;;171oX:81:;;;;;;;;;;;;;;;;;;;;;10e$o:8::*$****;**$$$$$$#$$$$*;;1o#801;;;;;;;;;;;;;;;;::;:;*;77##788<;;&**;;;;;"
};
