/* XPM */
static char *_2a3bc65604744338cf08993ed972872NU1qX2DQUXvc25fK[] = {
/* columns rows colors chars-per-pixel */
"30 120 108 2 ",
"   c #1D2D36",
".  c #1B273B",
"X  c #1D293E",
"o  c #1E313B",
"O  c #232D3D",
"+  c #24323E",
"@  c #1E2545",
"#  c #212644",
"$  c #252C43",
"%  c #282E43",
"&  c #242A49",
"*  c #292F4A",
"=  c #253242",
"-  c #2A3245",
";  c #2D3847",
":  c #2D354A",
">  c #2D394D",
",  c #30374B",
"<  c #323A4D",
"1  c #2C3751",
"2  c #2E3C52",
"3  c #333D54",
"4  c #383F53",
"5  c #343E5A",
"6  c #383E5C",
"7  c #2D4053",
"8  c #324056",
"9  c #394255",
"0  c #36425B",
"q  c #3A445D",
"w  c #3E485E",
"e  c #374462",
"r  c #3C4661",
"t  c #3D4964",
"y  c #3E4D6A",
"u  c #3E506A",
"i  c #3F5171",
"p  c #40475F",
"a  c #41485F",
"s  c #404762",
"d  c #434B65",
"f  c #484F66",
"g  c #444E69",
"h  c #484F69",
"j  c #495166",
"k  c #45516C",
"l  c #4A536C",
"z  c #4D556E",
"x  c #4E586E",
"c  c #50576D",
"v  c #51586E",
"b  c #465570",
"n  c #455572",
"m  c #4A5570",
"M  c #4E5670",
"N  c #4F5773",
"B  c #455976",
"V  c #4F5873",
"C  c #4A5874",
"Z  c #4F5A75",
"A  c #4F5976",
"S  c #4C5C79",
"D  c #505772",
"F  c #535B71",
"G  c #535B73",
"H  c #555D73",
"J  c #515975",
"K  c #525A74",
"L  c #545B75",
"P  c #525C75",
"I  c #555D76",
"U  c #585F76",
"Y  c #575E78",
"T  c #575F7A",
"R  c #4E607B",
"E  c #546077",
"W  c #596177",
"Q  c #55617B",
"!  c #59617B",
"~  c #5C6378",
"^  c #5C647A",
"/  c #5B627C",
"(  c #5A647D",
")  c #5E667D",
"_  c #5D657E",
"`  c #5D697F",
"'  c #61677F",
"]  c #60687D",
"[  c #556780",
"{  c #5D6680",
"}  c #5F6780",
"|  c #506881",
" . c #5D6A82",
".. c #636B82",
"X. c #636B83",
"o. c #636C83",
"O. c #636B84",
"+. c #676F86",
"@. c #686F85",
"#. c #647186",
"$. c #6B7182",
"%. c #697286",
"&. c #657488",
"*. c #6C7589",
"=. c #6E7689",
"-. c #6D798B",
";. c #707789",
":. c #71798B",
/* pixels */
": < : > > 3 3 : 3 , - : 3 3 , , 3 3 9 9 < 3 < 9 3 3 : : 3 < ",
"d l r d l M M q g g g d z l d g F W ! z d z a z F F d s M d ",
"K ..M d K ....l Y Y Y g l l l H %.$._ F ~ ] z _ %.$./ K _ z ",
"I +.! d l } +.c _ } I f d j l F _ ^ P F ] ] F ..=.:.+._ Y z ",
"Y } O.l g Y _ f K l d d w r d l V m m I ! Y F ..+.+.o.( C l ",
"! Y +.L g K I d z t q q q t g l z b b Y K M z / _ V Z Z l l ",
"I Y } / h l z d z r 0 3 0 t j l b l l I M l l / V y k l g g ",
"L Y K I l g l d l t q 0 y y g l l g j M l j l / j t t d d g ",
"L l l l d d g w l r r y k y d g g g g l g g l I d r q r d d ",
"z s g d r r d q g r t z b t d d g y d g t g d M r 6 6 r d d ",
"g s d r 6 6 r q d q d l g q r d d t t t t d d h q 6 q r g d ",
"d d r 6 5 5 q 5 q 5 q q q 5 w r t r t t t d r r 6 q r t d s ",
"d s q 5 5 5 6 3 0 3 3 3 5 5 w r r r r r t d q r q r r r r w ",
"q 6 5 5 5 5 5 1 3 3 3 1 5 0 q q w q q r r r 5 5 5 5 6 0 q q ",
"& # # # $ $ % $ - - - $ - - - - - : - : : : $ # # # @ # & & ",
"$ $ - $ - : : : < 3 - % 3 < < : - - % - : : % & & & # * - - ",
"d d l w d z l d d z w 9 U ! P l d d 9 a d z M d d d d l l l ",
"F F P l V Q Q z g P l j O..._ H z F j v ! %.+.K g l h I Y / ",
"F g l l Q P Z V g l C l ! P z d c ' c F / ../ l r M l / ! Y ",
"K t r j ` Q j m g d z d K b d d _ ..l l K V m d e F l l g K ",
"M g q j Q Q l g j t j d C k t z Y K d l D j g d e M f d d Y ",
"r e e k V l l d j d d d l g t g g z d l z d t r r M d d d I ",
"5 5 t d l d d d j j d d g t q t d l t g g r r 6 r l d d l l ",
"2 5 t d j y d j l l j d y q q r t g w l d q 6 5 t g d l M r ",
"5 0 t y g g l j d d d w r 0 0 r t d w d r 5 5 5 t d d l g 6 ",
"6 q t t d t d d r w t 0 q 0 0 r t d 9 w 5 2 2 0 r d d g r 5 ",
"5 0 r q t q r q q 0 q 3 0 5 0 q r r q q 3 2 2 0 0 q w r q 5 ",
"2 5 0 0 q q q q q 5 0 > 2 3 5 0 0 q 3 q 0 5 2 2 2 5 0 0 3 3 ",
"> 2 2 > 3 5 3 3 2 2 3 : 2 2 2 3 3 5 3 3 3 1 1 1 2 3 3 3 2 2 ",
"$ $ $ $ $ $ $ # # $ - $ $ $ $ O # % $ O X . O = = - = $ = = ",
"< q a 9 3 3 , - , 9 3 < , , < : , , : - $ $ O < : < 3 < 9 9 ",
"F ..+.I M F l w l I F F F M l z Y P x j d d 9 F z F Y ^ _ F ",
"! #.+.! Y ! / l K _ ..%.+._ l ! &.#.( Q k z z ..I K ..=.@.Y ",
"Q } ( K Y } _ l Y ( ! ..=...z E  . .Z Q k j v _ P M ..../ F ",
"Q Q P z _ .._ l ( S B C P P K P } V z Z l j l K M t k k l z ",
"S S P l P Z K l ..P R B k g K K P g l b k j l l g r e y k l ",
"Z S C k k y l l _ / Q C g l I F j d g u y k d l t e 0 t g g ",
"C b y g t t g d Y / / K z I ! z d g g t r g d g t q 5 r t d ",
"k y t t r r g d F Y Q P M Y M l d g y r q d d d r q 0 r r d ",
"j y r q w q g d M l b k g M d d t t r r q t d d r q q r 0 d ",
"d t q q q 0 y d l y u y g j d w q r r r q r t t 0 0 q 0 0 d ",
"t r q q w r t d g t t r d y t q q q q r 0 r q q 0 0 q 0 q d ",
"q q 0 q r r w w d r q q t r q q 0 0 q q 0 q 3 0 8 8 0 0 q w ",
"8 0 0 q r q w q t w q q q q q 5 3 5 0 5 3 5 3 3 3 8 8 3 0 0 ",
": : : - : : : : < < : : : : : % % - - % $ % % % % = = = - - ",
"3 3 3 : : < 3 3 9 9 < < 3 < < : : : - , < < < : - - : 3 9 9 ",
"z I _ d d z M K ! I c v ! ! I z z z d V I E P l l d d Y _ Y ",
"_ ;.=.l g F Y } +.+._ I } %.=.&.....F _ +.#. .Q ( I H #.-./ ",
"#.:.+.d l l Y O.+.%...z m ..-.#. ...V _ #...K Y } I F  . .K ",
" .../ d F g m [ #...( j C &. .Q [ / z / P l d Z C m j S Z m ",
"Q [ K d ! g k B | } Q l (  .Z S Q Z V K l t d m y g d C g M ",
"R K g d ! g y k B S P z P m b S P V z z d r g g e g d l d C ",
"P g g d K g r t t d V k b y i P m m l j r q d e e g d g y b ",
"m t g d z g r 0 q q l l k y y g d z j g 0 q r e r g d g y l ",
"d t y t k k t 0 0 0 l g y t e q t b j d 5 q r 6 r g r t t g ",
"t t y t g y y r e q j d t r e q y k d w 5 0 0 5 q d q r q r ",
"t t t t d r t t r q d t r r r e y t d q 5 0 0 5 0 r 0 q 5 q ",
"t r r q r q r r q q w q r r e e r r w 0 0 0 0 3 0 q 3 0 5 q ",
"q 0 0 0 q 5 0 0 0 0 3 3 0 0 5 5 0 0 3 8 8 8 2 2 3 3 > 0 0 0 ",
"- $ $ - : : : - - - - + = = = = - = = = + o   o = = $ - - - ",
": : : , 9 3 < - : < < - = - = - < : - = + +   - : : : : - % ",
"l l g d W ! F d d z z l r d d w v j d 0 w d 9 j M l z z d q ",
"] _ Z g _ +...d z / ..} D F z H o.H I l z I d F Y F ! _ F d ",
"] +.Q l z Y I d z Y Y ! ! l l H ..I I z l I d z z d M M M d ",
"U ( Q l d z z d m Z z l P g d F _ Y z F d d w d t d l l g d ",
"I b b j s l l f V Z k d M d g F F M k C z d 9 d r d g d d d ",
"F k t g r h z d F V m q l j d l g g g k m g w d r d t r r d ",
"F g 0 r q d z d l M z 0 t z d d d g d y k j d t r d r r q d ",
"M t 0 6 6 e M d d y d q q g d t t d r r t g d t r y r 0 q d ",
"z t 0 5 5 6 l d t r q 0 q r d r t t r 0 r d w r r t q 3 0 d ",
"l t q 5 5 q g d t 0 0 0 q e w w r r r 0 r t 0 q r q 5 2 0 t ",
"d r q 5 0 q d w q 3 0 0 q r q q q q q 0 0 r q q q 0 5 5 q r ",
"w q 0 3 3 q r q q 8 0 q q q 0 3 0 8 8 8 8 0 3 0 0 0 5 5 q w ",
"q 0 3 3 3 3 q 3 0 3 8 0 8 8 3 2 8 7 7 7 7 8 > 3 3 0 3 8 0 q ",
": : - - - - : - : : - = O O O O = = = = = = O = = = + - : - ",
"< < , - , 4 4 3 9 9 < - : = - < < : = - > , - : : > ; 9 3 : ",
"H F l w j ! I H ( _ F d v d w z K F w d M F j g z z l } P j ",
"] ../ j l ! I Y ..%.! v o.I d F } } l I ../ I F .._ H +...I ",
"F ! _ l z g d l K / F l .. .l d M Y l K / } ! I ..] v ( ..! ",
"d F / l F t q g b Q Y d K Q I d g V l M Q Q l F Q I l / _ I ",
"a d K j M d q r k C Q d l m P g t l d z m b d l Z z d ! _ Y ",
"l t h d l g r q r y z d j g k k t l d j g k r g l d d M Y _ ",
"M d d d g g d q 0 q d d j t y t t k d g t g r y g d d g l } ",
"l d d d d d d q 0 q d d z w q t r g d g t t q t t t w d d K ",
"d p d d d t t r 0 0 w d V q 0 q r d d d t t r t q t w t r d ",
"r q w 9 t r r q 0 0 q w z q 0 0 q t w d t y y t q t 0 q q r ",
"q q w 9 w 0 0 0 0 0 q q d w 0 8 q t w d w r y t q w q q 0 q ",
"8 0 q q q 0 8 7 7 8 0 8 q q q 0 q t w r q 0 q q 0 0 9 q 0 8 ",
"8 0 0 3 q 0 3 2 > > 8 3 q 0 0 0 q r q w q 0 0 0 0 0 3 0 3 2 ",
"- - - % - - = $ = = : - > < - % - > : < : - - - - - - - - $ ",
"- : : - - : : - 3 9 9 > 9 9 : : , < 3 3 < : - : : : - - , - ",
"w d d w t d g p I / L z _ ! l d F F M z d d p l g z l z l 9 ",
"g M F l z K F d ..+./ ..%.o.^ U %.../ _ x l d I K / Q  ._ l ",
"j l j l I K l d _ ..I Y / ! ^ I / I Q } F d d z z I P Y V d ",
"d d t d l d d a z Y l M K M F z z d K I l d d d l V k M g d ",
"w r r t t r d w l D d z z l M z d t P z d d d d l k d j d d ",
"q q q t q q d w z g w l g d z z q d K g w d d d j y t d t d ",
"q r r t r q d w l t q d r d h l 0 d z t 0 t d g g r r t t w ",
"d j y r r q d a g q w d q s d d q d d q 0 t d g t q r t t w ",
"l t q q r r d d d 0 t q 0 r w d q r r q 8 w d g r 0 r r r w ",
"g q 8 0 q r d w r 0 w 8 0 q w d q w q q 0 w w d q 0 w r r w ",
"d q 8 8 0 r d 9 q 8 8 3 0 q q d q 0 0 q q w 0 t 0 0 q q q 9 ",
"r q 0 8 7 8 q 3 8 2 2 3 3 0 q w q 0 0 0 8 0 3 0 8 0 0 0 0 q ",
"3 0 8 2 > > 8 < 3 > > > 2 8 3 q 0 3 3 3 3 3 3 8 3 8 3 3 5 3 ",
"= = + O O O = = $ O O O + O % - - = $ = = - = - - - $ - : - ",
"4 < 3 , : : < < : - - - : : : : , 3 : , 3 < > < < < : 3 9 9 ",
"I F P l z d F I F l d 9 l z j d l K d l Y I l z I F d I .._ ",
"O.} ..z M l +.+.o...F j ! / ! D l K l I } } ! I ..! z %.-.=.",
"+.+...F m K %.=.%.( K l F M K I l g l / / / _ K _ ! H -.O.+.",
"K / _ x Z / #.-._ b m l M g l l g d l / / K Q z P Y z } S [ ",
"M K ! z K ..-.( Z M z l M g g l l d d K Q C Z l m K l P B } ",
"Z M P l K  .( l m Q V l l z l g g d d l k k m l y z l Z b Q ",
"Z m Z j V l d g b [ Q l l l l d d d d h r q y g t l j B i B ",
"m m M d l d r t k ( _ l D l d r r r d g q 5 0 t r g g b y k ",
"l l l d g r e r t M _ l g d q q q q r d 0 0 5 q r d d y e g ",
"g y g d d r r e e d Q d r r q 0 0 0 w d e r 0 0 0 r d y e t ",
"t t d d d r r e e r l d r q q 0 3 q w d q e e 0 0 r t t q r ",
"r r r w r r r r q q r w r q q 0 3 q w t 0 0 e 0 0 q r r q 0 ",
"q q r 0 q 0 q q q 6 q q q 0 5 5 3 0 q q 0 0 0 q r w r r q 6 ",
": > > : : > : > 3 : - - : : % % - : : < > : > 3 3 3 3 3 1 : "
};
