/* XPM */
static char *ac9282f80c714d1eb0b41305d9726215bfTNceab4f3PlJzS[] = {
/* columns rows colors chars-per-pixel */
"30 60 169 2 ",
"   c #000004",
".  c #0D0D00",
"X  c #01010C",
"o  c #0A0A0C",
"O  c #131302",
"+  c #1B1B03",
"@  c #1D1D0C",
"#  c #030314",
"$  c #0B0B14",
"%  c #03031D",
"&  c #0C0C1C",
"*  c #111115",
"=  c #1E1E16",
"-  c #12121B",
";  c #1E1E1D",
":  c #202012",
">  c #21211D",
",  c #010124",
"<  c #0D0D22",
"1  c #00002B",
"2  c #0E0E2B",
"3  c #151525",
"4  c #1E1E23",
"5  c #14142A",
"6  c #000034",
"7  c #0F0F35",
"8  c #00003D",
"9  c #0F0F3B",
"0  c #1A1A33",
"q  c #14143C",
"w  c #19193B",
"e  c #222224",
"r  c #202028",
"t  c #202031",
"y  c #212139",
"u  c #000043",
"i  c #0F0F45",
"p  c #00004B",
"a  c #0F0F49",
"s  c #161645",
"d  c #191944",
"f  c #14144C",
"g  c #1B1B4A",
"h  c #000054",
"j  c #0D0D54",
"k  c #00005C",
"l  c #08085B",
"z  c #161654",
"x  c #16165D",
"c  c #18185B",
"v  c #2B2B44",
"b  c #2D2D4A",
"n  c #272753",
"m  c #292955",
"M  c #000064",
"N  c #0E0E67",
"B  c #00006C",
"V  c #0D0D6D",
"C  c #161664",
"Z  c #17176C",
"A  c #000074",
"S  c #0D0D75",
"D  c #00007C",
"F  c #0C0C7C",
"G  c #111172",
"H  c #454549",
"J  c #4F4F56",
"K  c #4F4F59",
"L  c #505056",
"P  c #515158",
"I  c #010184",
"U  c #090984",
"Y  c #090985",
"T  c #0B0B86",
"R  c #090986",
"E  c #0B0B82",
"W  c #000088",
"Q  c #000089",
"!  c #010189",
"~  c #00008A",
"^  c #00008B",
"/  c #01018B",
"(  c #00008C",
")  c #00008D",
"_  c #00008E",
"`  c #00008F",
"'  c #00008C",
"]  c #0A0A8B",
"[  c #09098A",
"{  c #000090",
"}  c #000091",
"|  c #000092",
" . c #000093",
".. c #060691",
"X. c #060693",
"o. c #000094",
"O. c #000095",
"+. c #000096",
"@. c #000094",
"#. c #090993",
"$. c #090996",
"%. c #000098",
"&. c #000099",
"*. c #00009A",
"=. c #00009B",
"-. c #02029A",
";. c #00009C",
":. c #00009D",
">. c #00009E",
",. c #00009F",
"<. c #00009B",
"1. c #0B0B99",
"2. c #0000A0",
"3. c #0000A1",
"4. c #0000A2",
"5. c #0000A3",
"6. c #0000A4",
"7. c #0000A5",
"8. c #0000A6",
"9. c #0000A7",
"0. c #0101A4",
"q. c #0000A8",
"w. c #0000A9",
"e. c #0000AA",
"r. c #0000AB",
"t. c #0000AC",
"y. c #0000AD",
"u. c #0000AE",
"i. c #0101AE",
"p. c #0000AF",
"a. c #0101AB",
"s. c #0000B0",
"d. c #0000B1",
"f. c #0000B2",
"g. c #0000B3",
"h. c #0000B4",
"j. c #0000B5",
"k. c #0000B6",
"l. c #0000B7",
"z. c #0101B4",
"x. c #0000B8",
"c. c #0000B9",
"v. c #0000BA",
"b. c #0101BA",
"n. c #0000BB",
"m. c #0101BB",
"M. c #0000BC",
"N. c #0101BC",
"B. c #0000BD",
"V. c #0000BE",
"C. c #0000BF",
"Z. c #0000BB",
"A. c #0000C0",
"S. c #0000C2",
"D. c #0101C2",
"F. c #0000C5",
"G. c #0000C3",
"H. c #0000C8",
"J. c #0000C9",
"K. c #0000CA",
"L. c #0000CB",
"P. c #0000CB",
"I. c #0000D0",
"U. c #0000D1",
"Y. c #0000D4",
"T. c #0000D5",
"R. c #0E0ED4",
"E. c #0000DB",
"W. c #1010D7",
/* pixels */
"c I D D D D D D D I v G | ~ ~ _ _ _ _ ~ ~ _ ~ | n x I D I z ",
"V u.3.8.8.3.3.3.3.w.q [ F.k.B.k.x.x.k.B.B.x.B.L.f F B.u.x.V ",
"k 8.~ %.| | ~ | I B $ $.A.;.w.A _ 8.D 8.;.+.x.3.< E u.%.u.u ",
"k | +.+.I %.I D A A < V D M h u 6 B h u p p M k % F s.+.8.8 ",
"k | k.;.A | ~ B A k < & % , , , 1 , , , o . . . O E B.k._ 8 ",
"k +.x._ ~ 3.;.D B M $ #.L.k.k.x.k.k.A.B.w g c z e E s._ A 6 ",
"k u.w.w.| 3.%.A k M & F L.s.;.;.%.3.s.3.< %.u.;.2 S 3.I I 8 ",
"k ;.8.3.D I | I B h $ E U.A.w.8.%.3.%.%.< R | I % F s._ | 6 ",
"k | +.I +.A B A D M $ U B.3.3.w.3.~ D I & ..+.A & F %.8.~ , ",
"h +.| D w.D k M D B o U B.%.3.k.;.A D B $ X.| I & S ;.;.I % ",
"h +.~ I D B M k h k $ [ x.w.u.B.%.M ~ k $ R | D & U 8.B D 1 ",
"h +.A ~ B B k M 8 h $ U w.w.8.u.w.~ A k < U ~ A < F D M D 1 ",
"h | A M k A M p h k $ U U.| +.I I +.D h $ X.~ D < F I M M 1 ",
"h | B A k u u u u p $ U Y._ +._ D I A h $ R +.M < o X       ",
"  X                 . [ k._ +.3._ A B h $ X.8.D , = ; ; ; ; ",
"u.w.8.3.8.w._ M k.w.B D w.| 8.;._ I M u $ [ 8.~ % S 8.k A.x.",
"k.%.s.3.%.%.D M k.s.A A u.u.%.3.A M p h $ [ D A & F +.h x.s.",
"s.+.;.~ _ I D M L.3.h A u.w.I D A M p p $ R k k $ F ;.h x.u.",
";.w.8.D ~ ~ M M x.8.h D B.3.%.A B M B h $ R B M & F A p F.s.",
"+.8.s.I _ A M M u._ h h D B M u u p 8 1 $ k u 1   9 1 h A.8.",
";._ s.~ A B k k 8.D h . . . . . . . . . O O . 6 8 8 % f x.+.",
"%.I | ~ I D p k 8.A u 5 Z C C C C C C C C x y A.L.L.U f k.+.",
"u.+.| %.I B p M k.D 8 i L.x.A.B.x.A.w.A.B.| 5 u.x.u.h a x.| ",
"u.~ 8.I ~ D p k ~ D 8 9 x.u.L.B.s.w.8.s.w.M $ b.L.x.h a A.;.",
"%.D u.+.~ I p k D B p 9 k.B.E.Y.L.%.;.+.+.M & i.A.w.p a L.8.",
"8.%.w.3.A D k % % % X 9 A.k.L.k.U.%.A I _ h < i.8.w.u a L.w.",
"+.%.3.+.M M u o + @ + s A.s.u.8.k.%.I I M h < b.s.+.u a x.s.",
"+.+.8.I M M p < 1.0.G d s.s._ u.;.+.I I B h & N.u.8.p a k.u.",
"| +.;.B k k p < w.u.B q A.s.~ 8.| 3.~ D A h $ z.w.8.u a B.~ ",
"_ I ~ B A A 8 & 0.3.M 9 F.w.u.;.D %.D k B h & i.%.s.p a ;.| ",
"+.+.D B A D u & 0.+.u 9 x._ s.3.D B A h p 8 & z.8.s.p a ;.A ",
";.| D M p M p & 0.3.p 9 k.;.;.I A B B k h p $ i.w.+.u a s.A ",
"_ _ D A p k p & z.+.8 q 8.+.| B A D k k M u & z.8.D 8 a k.+.",
"I D D A k k h < a.;.8 i A.8._ M A D M h h u & b.%.+.8 a k._ ",
"I B A B h p p < -.I p 7 A B p 8 u p 8 1 1 , & z._ | u f u.~ ",
"I D B k p p 6 < 0.8.p O . . . . . . . . . . - w._ B 8 f 8.A ",
"%.+.I A h k p < 0.%.p 3 C x x x x x x C x c t 3.u.D , j L._ ",
"u 8 6 1 X # X & a.D 8 9 F.x.A.s.u.s.s.8.x.;.5 w.k.| 1 < u 8 ",
"O + o 1 8 u 1 3 3.I 8 7 F.B.u.u.u.;.3.D _ I & 0.w._ 1 & p % ",
"z E -.u.k.x.8.0 %._ p 9 L.F.8.s.B.I | ;.+.A & i.+.B , i k.p ",
"V L.F.k.k.k.w.5 %.D u 9 F.B.F.k.%.A D +.~ A & a.D M 6 9 _ 8 ",
"V x.A.x.x.3.w.2 0.D 8 9 F.k.E.u._ D A I D B < -.B M 1 9 ~ 6 ",
"F A.L.B.;.k.8.& # #   9 B.s.L.A.3.I B M D B & [ B M 6 7 ~ 6 ",
"S k.u.u.+.s.I - : = : s k.u.8.k.w.;.A B B p $ X   X   9 D 6 ",
"F x.| u.%.u.8.< i.u.S w B.k.+.w.;.I I M k 8 * > ; ; ; 4 r * ",
"F s.u.%.u.3._ 2 ;.w.M 7 A.k.;.B.w.D A M k 8 & i.s.x.x.k.F.M ",
"S L.3.3.+.I _ 2 a.s.k 7 k.8.s.B.x.| B k B h < a.w.s.w.;.s.p ",
"S s.;.x.| B +.2 a.%.h 9 B.3.3.x.x.w.A h B k < 0.L.A.8.;.8.u ",
"F w.D.P.+._ _ 2 i.8.B 7 A.w.+.%.x.8.A k k 8 < i.F.L.8.| | 6 ",
"S k.R.W.%.+.M 2 a.3.h 7 x.%.A I ;.D D B h 6 & 0.w.k.u.| D 6 ",
"S B.x.u.~ A u < i.s.p 7 x.8.~ D I M ~ I k u < z.3.+._ A B 6 ",
"S B.w.I _ A h < z.3.h 7 s.s.;.A I A I _ B h < a.%.;.D M B 6 ",
"V B.+._ 8.+.k < i.;.k 9 x.8.%.I A M B | B u & i.8.3.~ A D , ",
"S B.%.I +.;.M < z._ u 9 k.%.I w.D M k k k 8 & z.8.w.3.I _ , ",
"S w.%.B B 8.B < z._ 8 9 s.%.+.8.I B M u p 6 < z.+.w.s.I I 1 ",
"S _ A I D D h < 0.A 8 9 x.;.s.B B k h 8 h 8 < i.w.3.~ A A , ",
"V %.A B B B h < 0.A 8 7 k.u.| k M p p M p u < z.s.~ A D k 1 ",
"V | D A M A A 0 | I l q w.;.D D D k k I M h 0 u.+.| D D A u ",
"C _ D D D D D v I I N m s.I ~ D D D D D D A b ;.I I D D I j ",
"L J L L L L L L L J L L K L L L L L L L L L L L L L L J P H "
};
