/* XPM */
static char *_2c935b5ef90477e928303b6abcbaafc1OQmGNDQhyECs2ZD[] = {
/* columns rows colors chars-per-pixel */
"30 30 112 2 ",
"   c #58372C",
".  c #5B382D",
"X  c #663E32",
"o  c #693F34",
"O  c #743E33",
"+  c #6D4135",
"@  c #6C453A",
"#  c #6F493D",
"$  c #724336",
"%  c #734439",
"&  c #7A463A",
"*  c #744A3D",
"=  c #7C4A3C",
"-  c #6F4B42",
";  c #744D43",
":  c #7B4E42",
">  c #7D5144",
",  c #7E5549",
"<  c #7F6055",
"1  c #7E6159",
"2  c #7F6860",
"3  c #824B3D",
"4  c #88513D",
"5  c #854E40",
"6  c #8A4E41",
"7  c #855244",
"8  c #8C5243",
"9  c #8A574A",
"0  c #875C4F",
"q  c #8D5A4B",
"w  c #945545",
"e  c #985646",
"r  c #995846",
"t  c #945649",
"y  c #945B4C",
"u  c #985D4E",
"i  c #835F55",
"p  c #8A5D50",
"a  c #836056",
"s  c #8D6055",
"d  c #84645A",
"f  c #89655C",
"g  c #8B685E",
"h  c #936253",
"j  c #996657",
"k  c #966759",
"l  c #986759",
"z  c #946A5C",
"x  c #846B63",
"c  c #8B6C64",
"v  c #936E64",
"b  c #8A7067",
"n  c #8F746B",
"m  c #947066",
"M  c #997266",
"N  c #91706A",
"B  c #977268",
"V  c #977269",
"C  c #95746A",
"Z  c #93746F",
"A  c #987268",
"S  c #9C7269",
"D  c #98746B",
"F  c #9B756B",
"G  c #9F796D",
"H  c #937E76",
"J  c #987C75",
"K  c #9F7D74",
"L  c #947F78",
"P  c #997F78",
"I  c #A17669",
"U  c #A0766D",
"Y  c #A1786E",
"T  c #A17D72",
"R  c #968079",
"E  c #998078",
"W  c #99847E",
"Q  c #9C867F",
"!  c #A38177",
"~  c #A4887F",
"^  c #998781",
"/  c #9A8983",
"(  c #9A8A84",
")  c #9C8B84",
"_  c #9C8B86",
"`  c #9B8C86",
"'  c #9D8E87",
"]  c #9F8E88",
"[  c #A28B84",
"{  c #A58C85",
"}  c #A78E87",
"|  c #A08F89",
" . c #A38F89",
".. c #A98F88",
"X. c #A5908B",
"o. c #A3918C",
"O. c #A5938C",
"+. c #A4928D",
"@. c #A4958F",
"#. c #AA948E",
"$. c #A79791",
"%. c #A89691",
"&. c #AC9790",
"*. c #A79890",
"=. c #AA9994",
"-. c #AA9A94",
";. c #AC9C96",
":. c #B19F9A",
">. c #AFA09B",
",. c #B1A19C",
"<. c #B3A39E",
"1. c #B4A4A0",
/* pixels */
"u w = & % % + X   2 / i 3 w w w 8 3 = % $ o o o c ( p 3 w e ",
"y 8 = & % @ + X . x ( s 3 w w w 8 3 = % $ o o o c ( p 3 w e ",
"t 8 = & $ + + o X x _ k w w w w 8 3 = % $ + o o c ( h 8 w e ",
"9 3 = & $ + + o X x ' k w w w w 8 3 = % $ + + + c ( h 8 w w ",
"= & & & $ + o o X c ] l w w w 8 6 3 3 & & $ $ + b / s 6 w w ",
"g f f f d d d d c W %.! I I I M v v v g g g c c Q +.K S I I ",
"_ ( ( ` ' | o.=.,.,.,.,.,.,.,.$.O.O.+.+.+.+.;.,.,.,.,.,.,.,.",
"_ W B v M M v B C C N N N N Z +.X.F A A A B B F B N N m N N ",
"' P t w w w 6 5 = & % % % $ ; | } t 8 8 8 6 3 = & % $ $ $ $ ",
"' E t w t w 8 5 = & % $ $ $ ; | } y w t w 8 5 = & % $ + + + ",
"' E t w t w 8 7 = % % $ $ + ; X...u w t w 8 5 3 & % $ + + o ",
"' P 9 8 w 8 8 7 = & % $ @ @ ; X.+.y w w w 8 5 3 & % $ + o X ",
"] E 0 q y y q 9 7 > = * * * , +.O.h y y y t 9 7 : = * * @ @ ",
",.;.#.#.#.#.#.O.| | | X.X.X.#.:.:.&.#.#.#.#.X.[ W W R L H H ",
"#.+.#.#.#.=.,.=.X.+.#.#.#.#.#.#.#.#.#.#.=.,.%.| [ Q Q E R R ",
"; # * * * g $.T y y y y q 7 7 > : : : : c =.T y u u y t 7 7 ",
"@ X o o o a +.G w w w 8 8 3 = % % $ $ $ f =.Y w w e w w 3 = ",
"@ X o o o i +.G e e r w 8 3 = % $ + + + f =.Y w w w w 8 5 = ",
"@ X X o o i +.G w e e w 8 3 = % $ $ $ $ f =.Y w w w w 8 3 = ",
"+ X X X X < O.G w w w w 6 3 & $ $ $ $ O f =.G w w w 8 8 3 = ",
"d 1 1 1 d n O.~ Y Y Y U F A B c c c c c J =.[ Y Y Y Y G F C ",
"' ( ( ' ' o.O.;.,.,.,.,.,.,.,.;.=.=.=.=.=.*.;.,.,.,.,.,.,.,.",
"v z v v v v v v m v v v N X.%.G S M A M B m v v c c c n =.,.",
"7 4 w w 8 5 3 & % % $ $ & W | y w 8 8 8 7 3 = % $ + + @ | ,.",
"w 8 w w 8 6 3 = % $ $ $ % E [ y w w 8 8 5 = & $ + + o @ W +.",
"t w w w 8 6 3 & % $ + + % R _ u w w 8 8 5 = % $ + + o @ R | ",
"= = 8 8 8 3 = & $ $ + + @ H Q y w w w 8 5 & % $ + o X @ H _ ",
"> > q y y q 7 : * * * # ; H Q j u u y q 9 , : * * @ @ - H ( ",
"%.#.&.&.&.#.#.[ L L L L R ^ _ #.&.&.&.&.&.#.[ L L L L L ^ / ",
"1.,.,.,.,.,.,.=.' ' ' ' ' _ ] >.,.,.,.,.,.,.=.' ' ' ' ' _ _ "
};
