/* XPM */
static char *_6750c9e4d7e4f90cd8701bb7d728bfavEd9kcJuqKI0ERK2[] = {
/* columns rows colors chars-per-pixel */
"30 32 233 2 ",
"   c #140B0A",
".  c #1D1008",
"X  c #150C1D",
"o  c #0A131D",
"O  c #0D1812",
"+  c #1C1415",
"@  c #15121A",
"#  c #1B171B",
"$  c #1D1A1A",
"%  c #141717",
"&  c #08130D",
"*  c #3D1D0C",
"=  c #331E0D",
"-  c #21131A",
";  c #281917",
":  c #3B1E13",
">  c #341F18",
",  c #34220A",
"<  c #3D240C",
"1  c #352607",
"2  c #352212",
"3  c #3C2414",
"4  c #362915",
"5  c #3C2A14",
"6  c #35251B",
"7  c #3C251A",
"8  c #312A1C",
"9  c #3C291B",
"0  c #2D2415",
"q  c #0A0E24",
"w  c #150F24",
"e  c #091327",
"r  c #0B132C",
"t  c #071325",
"y  c #151424",
"u  c #161A24",
"i  c #111329",
"p  c #1B1E2F",
"a  c #1B1724",
"s  c #0C1232",
"d  c #121C35",
"f  c #220C23",
"g  c #221D22",
"h  c #16222E",
"j  c #1A2334",
"k  c #15223C",
"l  c #252229",
"z  c #3C2523",
"x  c #3C2C24",
"c  c #362627",
"v  c #3E3027",
"b  c #2E2237",
"n  c #2B2D34",
"m  c #282C3B",
"M  c #451D0C",
"N  c #471F07",
"B  c #421F13",
"V  c #442404",
"C  c #4D2403",
"Z  c #4D2903",
"A  c #44220B",
"S  c #49260B",
"D  c #45290D",
"F  c #4C2A0B",
"G  c #532603",
"H  c #552904",
"J  c #5B2A04",
"K  c #5A270C",
"L  c #532B0B",
"P  c #5C2D0C",
"I  c #552509",
"U  c #4D340C",
"Y  c #56310A",
"T  c #5D320E",
"R  c #432413",
"E  c #4B2513",
"W  c #442B14",
"Q  c #4B2B14",
"!  c #42261A",
"~  c #432A1B",
"^  c #4B2B1C",
"/  c #4B261B",
"(  c #532C13",
")  c #5B2E13",
"_  c #532D1B",
"`  c #502713",
"'  c #413117",
"]  c #4E321A",
"[  c #493318",
"{  c #543114",
"}  c #5C3313",
"|  c #55321B",
" . c #5A331C",
".. c #5A3A17",
"X. c #632D06",
"o. c #622C0B",
"O. c #662708",
"+. c #6C3404",
"@. c #65340B",
"#. c #6B3B0C",
"$. c #67350B",
"%. c #7D350A",
"&. c #733D0D",
"*. c #7D3D0A",
"=. c #773707",
"-. c #682F15",
";. c #623413",
":. c #6A3513",
">. c #63331E",
",. c #6B351A",
"<. c #613A1C",
"1. c #6C3F19",
"2. c #6B3A12",
"3. c #7D3710",
"4. c #723C12",
"5. c #7C3D13",
"6. c #723D1D",
"7. c #7A3D1A",
"8. c #743718",
"9. c #412620",
"0. c #422D23",
"q. c #492C21",
"w. c #412F2F",
"e. c #483322",
"r. c #563223",
"t. c #5B3727",
"y. c #693924",
"u. c #743B21",
"i. c #7D3F26",
"p. c #7D4204",
"a. c #74410C",
"s. c #6A401A",
"d. c #704213",
"f. c #7D4414",
"g. c #73441C",
"h. c #7C431C",
"j. c #7E4B19",
"k. c #744124",
"l. c #7A4323",
"z. c #7B4A23",
"x. c #75422A",
"c. c #7A412D",
"v. c #333852",
"b. c #262B41",
"n. c #434551",
"m. c #843C03",
"M. c #8B3E03",
"N. c #843C0B",
"B. c #8A3D09",
"V. c #823606",
"C. c #933D0A",
"Z. c #843D12",
"A. c #8B3C11",
"S. c #823F1D",
"D. c #923F11",
"F. c #863F29",
"G. c #834106",
"H. c #84420D",
"J. c #8B440C",
"K. c #8A4608",
"L. c #93450C",
"P. c #9A4C0C",
"I. c #98470C",
"U. c #844413",
"Y. c #8B4413",
"T. c #84451A",
"R. c #8D451A",
"E. c #844B1C",
"W. c #8E4D1E",
"Q. c #894A17",
"!. c #944614",
"~. c #994314",
"^. c #944913",
"/. c #9B4C14",
"(. c #934B1A",
"). c #9C4B1B",
"_. c #9C521C",
"`. c #94521A",
"'. c #AA4E0C",
"]. c #A5480E",
"[. c #AB520B",
"{. c #B6530F",
"}. c #B5590B",
"|. c #A04F15",
" X c #AB4F11",
".X c #A44D1A",
"XX c #AB4D19",
"oX c #A45214",
"OX c #AD5415",
"+X c #A4541A",
"@X c #AB571C",
"#X c #AA5A17",
"$X c #B45B13",
"%X c #BA5B15",
"&X c #B35B19",
"*X c #BA5C1B",
"=X c #BA5513",
"-X c #B5641C",
";X c #BC621B",
":X c #BE6618",
">X c #834523",
",X c #824A23",
"<X c #8A4B24",
"1X c #834A2B",
"2X c #8D4A2A",
"3X c #8D4723",
"4X c #924A22",
"5X c #9A4D22",
"6X c #954C2B",
"7X c #8A502A",
"8X c #9B5223",
"9X c #995A26",
"0X c #945527",
"qX c #965132",
"wX c #A34F20",
"eX c #A45425",
"rX c #A45825",
"tX c #AA5A24",
"yX c #A95C2D",
"uX c #B95721",
"iX c #BD632B",
"pX c #B56424",
"aX c #C95A0C",
"sX c #C4590D",
"dX c #C55E1A",
"fX c #C3600B",
"gX c #C7681C",
"hX c #D06419",
"jX c #D4660D",
"kX c #C15F25",
"lX c #C36223",
"zX c #C66828",
"xX c #D96323",
/* pixels */
"uX&.K.gX&X$Xf.T.jXOXlX%.Y.gXOXaX#.W.xX{.:X=.,XzXrX*XN.!.zX@X",
";.W S -.r.@.< ^ ;.| X.! q.o.| ;.5 ! -.e.P E / ;.} @.D S @.L ",
"E.2.7.u.B f.g.u.y.A f.g.k.8.R g.h.l.4.4 1XS.6.d.M 1Xy.y.l.: ",
"{._.(.J.P #X^..X^.G tX/./.).G +X/.Y./.H _.!.8XM.L /././.Y.A ",
"O.9 2 S ~ C 9 * H 9 I 3 W C 7 ` , ~ K E C 9 6 X.4 Z D V Y 4 ",
"&X@.j.zX~.iX#.j.pX+X*X,.h.gX+XtX#.T.kXI.-X$.l.;X/.pX} h.zX'.",
"o.W A o.y.G W R ;.( X.: ~ +.( ) R R :.{ X.M / $.} J ~ R @.;.",
"4Xl.l.u.3 E.l.F.7.3 ,Xh.l.x.3 Q.i.x.g.4 >XF.c.s.2 <Xh.7.k.> ",
"oXL.P.H.G oX^.^.B.L /.^.^.K.L /./.(.K.S 8XI.!.J.E (.~.L.!.S ",
"T 3 3 { ~ G 7 7 r.B _ : ~ _ R _ 2 3 P 0.S < 9 ) ~ L ~ 5 P 5 ",
"[.4.T.pX+X*X+.,X-X).sX#.g.hX_.OX4.T.lX/.-X+.,X*X'.-X$.d.iX|.",
"P 6 9 ) E o.3 7 L { J 4 9 H { L 6 7 P ^ L 3 x ;.K o.3 7 ,.` ",
"8X,XT.5.Q Y.<X,X>XN 7X>X>Xh.N 6X<Xh.U.E <XR.,X5.! h.2Xz.7.2 ",
"+XB.I.Y.C |.B.!.C.D ^.R.R.J.D ~.C.(.H.A 5X].B.H.< 9X!.J.Q.1 ",
"| 2 R  .x L ! 3 { W [ < W ] W ( 3 3  .c _ A 0.| W H N V o.' ",
"OX4.U.*X+X%X=.,XgX.X=X4.E.dX+X%X&.U.dX@X$X+.j.lXXX@X6.z.iX.X",
"F 6 ~ H Q Y 2 z H / { > z Q / J 3 4 L / o.5 8 L D T 7 *  .^ ",
"eX4XY.1XB ).8X3XR.W <X(.(.h.W 0X(.>X<XW W.D.2X>XW Y.8X(.5.3 ",
"^.G.K.#.^ !.m.G.V.D !.M.K.A.W J.C.A.Z.< W.C.D.Z.7 W.*.H.,X= ",
"<.8 , g.~ r.x < <.' P 6 v ) e.} 0 ' T 0.t.5 4 .._ H 9 W T ( ",
"[.:.Y.aX[.#X4.Y.;X'.}.4.>X%X'.}.#.p.fX X=X+.j.%X'.&X1.f.;X'.",
"Z x z E e.S > 7 F q.U : ! Q q.F 7 9.K W C ! z ) ^ C ! * L ^ ",
"tX4X4X>XE wX5X6XW.A 0XY.(.<XA 9X8X>X<XD 9XR.qXZ.3 <X7X<X,X3 ",
"^.p.p.d.W J.H.a.%.D Y.N.N.3.R Y.m.f.&.R S.J.*.*.3 U.Z.N.3.* ",
";.W 5 ,. .T V ~ y.U >.< W y.U >.7 E 1.[ T R S y...J 5 W :.} ",
"rX=.U.%X+X&X=.,X*X].$X=.h.;XOX[.<.B.sXoXeX6.H.$X|.uX,.l.kXXX",
"W : x Q 6 A ~ l E W / 6 x E Q ` 8 ! Q 7 / z = ] 5 C 8 4 L < ",
"&X).2XE.L yX).`.(.R yX_.(.!.R rX'.R.z.L oX/._.3X/ eX).).4XR ",
"P.N.7.j.S 4XV.H.5.~ U.N.H.*.~ T.N.5.f.Z Y.f.U.%.Q Y.m.B.f.3 ",
"$ @ # . o   g u $ + $ @ a $ - # % g - u - u O + u   u @ + y ",
"d j m w.v.n.p e o f O s s & f o t q @ r a e h j p n k k n y ",
"y m j c v.m l X r y i w y q y r i w @ e X d m b b.$ m b l d "
};
