/* XPM */
static char *result[] = {
/* columns rows colors chars-per-pixel */
"50 50 102 2 ",
"   c #C4D37D",
".  c #C1D17B",
"X  c #BFD07B",
"o  c #C3D37D",
"O  c #C1D17C",
"+  c #BFD07A",
"@  c #C3D27C",
"#  c #B6C975",
"$  c #B0C572",
"%  c #B8CB77",
"&  c #AEC471",
"*  c #C0D07B",
"=  c #BDCE79",
"-  c #B7CA76",
";  c #B6C976",
":  c #B9CB77",
">  c #C2D17C",
",  c #B6CA76",
"<  c #B8CB76",
"1  c #C2D27C",
"2  c #AFC572",
"3  c #BCCD78",
"4  c #ABC270",
"5  c #AAC16F",
"6  c #ADC370",
"7  c #C3D27D",
"8  c #B5C975",
"9  c #ADC371",
"0  c #AEC472",
"q  c #C5D37D",
"w  c #B2C774",
"e  c #A9C16F",
"r  c #ABC26F",
"t  c #BECE7A",
"y  c #B3C774",
"u  c #BDCE7A",
"i  c #ABC16F",
"p  c #BFCF7A",
"a  c #AFC472",
"s  c #BECF7A",
"d  c #BACD78",
"f  c #BACC78",
"g  c #B8CA76",
"h  c #B8CA77",
"j  c #BBCD78",
"k  c #B3C874",
"l  c #B5C875",
"z  c #B1C673",
"x  c #B1C573",
"c  c #C5D47E",
"v  c #C9D67F",
"b  c #C9D77F",
"n  c #C7D57E",
"m  c #C8D67F",
"M  c #D3DE83",
"N  c #D4DF84",
"B  c #D4DE84",
"V  c #D5DF84",
"C  c #CEDA81",
"Z  c #C4D37C",
"A  c #CCD880",
"S  c #D1DC82",
"D  c #D3DD83",
"F  c #C7D581",
"G  c #CBD886",
"H  c #C6D47F",
"J  c #C6D580",
"K  c #D0DB82",
"L  c #D2DD90",
"P  c #E3E9A9",
"I  c #CCD888",
"U  c #CEDA8B",
"Y  c #E4E9A9",
"T  c #CFDB8D",
"R  c #D4DE83",
"E  c #CBD887",
"W  c #D6E096",
"Q  c #D7E198",
"!  c #D7E098",
"~  c #D5DF96",
"^  c #CAD785",
"/  c #CAD77F",
"(  c #D1DD83",
")  c #C6D47E",
"_  c #C6D480",
"`  c #DDE5A1",
"'  c #DBE39D",
"]  c #D2DD83",
"[  c #CDD981",
"{  c #C4D37E",
"}  c #C9D684",
"|  c #C8D683",
" . c #C5D47D",
".. c #CBD880",
"X. c #CBD780",
"o. c #CAD880",
"O. c #D0DC82",
"+. c #CFDB81",
"@. c #CEDB81",
"#. c #CFDB82",
"$. c #CDDA81",
"%. c white",
/* pixels */
"                                                                                                    ",
"                                                                                                    ",
"        . X o O + @                                                                                 ",
"        # $ O % & *                                                                                 ",
"        = - ; - : >                                         . - , , , , < 1                         ",
"          * 2 <                                           1 3 4 5 5 5 5 6 = O O o                   ",
"          7 * >                                         7 8 9 5 5 5 5 5 5 & 0 $ + q                 ",
"                                                        @ w e 5 5 5 5 5 5 5 5 r # t                 ",
"                                                        @ w 5 5 5 5 5 5 5 5 5 5 5 y 7               ",
"                                                        @ w 5 5 5 5 5 5 5 5 5 5 5 y @               ",
"                                                        @ w 5 5 5 5 5 5 5 5 5 5 5 y @               ",
"                                                        7 w 5 5 5 5 5 5 5 5 5 5 5 y 7               ",
"                                                          u # i 5 5 5 5 5 5 5 r # t                 ",
"                                @ * 1 7 * >               q p $ 0 a a a a a 0 $ + q                 ",
"                                s & d . 2 <                 o O . . . . . . . O o                   ",
"                                . - - - ; =                                   o f g g g g h X       ",
"                                    # $ O                                   7 * 2 5 5 5 5 5 % 1     ",
"                                    . * o                                   j a 4 5 5 5 5 5 9 y >   ",
"                                                                            : 5 5 5 5 5 5 5 5 & .   ",
"              o @     @                                                     : 4 5 5 5 5 5 5 5 2 >   ",
"              j k O = y X                                                   . j & e 5 5 5 5 l u o   ",
"              f z 3 % z p                                                     7 l $ $ $ $ x = q     ",
"              o * 2 l 1                                                         @ 1 1 1 1 1 o       ",
"                @ f =                                                                               ",
"                                                                                                    ",
"                                                                                                    ",
"                                                                                                    ",
"                                                                                                    ",
"                                                                                                    ",
"                                                            c v b b b b b b n                       ",
"                                                            m M N B B B B V C                       ",
"                      Z     Z                             A S V V V V V V V D C n                   ",
"                    F G H J G J                         q K V V V V V V V V V B m                   ",
"                  Z L P I U Y T Z                       q K V V V V V V V V V R m                   ",
"                    E W Q ! ~ ^                           / C V V V V V V V ( A )                   ",
"                      _ ` ' c                               m ] M M M M M M [                       ",
"                      { } |                                  .n n n n n n n )                       ",
"                                                                                b ..X.X.X.o.n       ",
"                                                                           . .) S V V V V V ..q     ",
"                                                                        c C O.S B V V V V V ] C  .  ",
"                                                                        ) ] V V V V V V V V V ] )   ",
"                                                                        ) ] V V V V V V V V V ] )   ",
"                                                          ..+.@.+.[  .   .b +.V V V V V V V +.b q   ",
"                                                       .n S V V V D m c     / ] ] ] ] ] ] ] b       ",
"                                                      v D N V V V V M A      .) ) ) ) ) ) )  .      ",
"                                                      b N V V V V V V [                             ",
"                                                      b M V V V V V B A                             ",
"                                                       .m S V V V M b )                             ",
"                                                          A #.#.#.$. .                              ",
"                                                            q q q                                   "
};
