/* XPM */
static char *e5f9a986d6a54600a23866eb58fa785d1089ClXHyVwxSj7W[] = {
/* columns rows colors chars-per-pixel */
"30 30 139 2 ",
"   c #043E65",
".  c #0B3C65",
"X  c #0C3E6A",
"o  c #103760",
"O  c #133C6B",
"+  c #1A3C6B",
"@  c #163C72",
"#  c #1B3C72",
"$  c #044367",
"%  c #0A4167",
"&  c #034865",
"*  c #04446A",
"=  c #0C446C",
"-  c #034B6D",
";  c #0B4B6E",
":  c #134266",
">  c #184467",
",  c #13446D",
"<  c #1A436D",
"1  c #12496E",
"2  c #02536D",
"3  c #09506E",
"4  c #064671",
"5  c #0F4471",
"6  c #044D71",
"7  c #0C4C72",
"8  c #144672",
"9  c #1A4573",
"0  c #144C74",
"q  c #1B4A74",
"w  c #1A4D7C",
"e  c #045474",
"r  c #0B5375",
"t  c #025A75",
"y  c #0B5A77",
"u  c #045579",
"i  c #0C5579",
"p  c #045C7A",
"a  c #09597A",
"s  c #0C587A",
"d  c #0D597B",
"f  c #0F587B",
"g  c #0A587C",
"h  c #0B5B7C",
"j  c #0F597C",
"k  c #0E5A7C",
"l  c #0F5B7D",
"z  c #0F5B7F",
"x  c #085D7C",
"c  c #0A5D7D",
"v  c #095E7D",
"b  c #085F7D",
"n  c #0A5F7E",
"m  c #0C5C7D",
"M  c #0E5E7F",
"N  c #0F5E7F",
"B  c #0C5B7B",
"V  c #105076",
"C  c #125477",
"Z  c #125275",
"A  c #195577",
"S  c #135178",
"D  c #115278",
"F  c #125278",
"G  c #135379",
"H  c #155078",
"J  c #165179",
"K  c #15507A",
"L  c #10567A",
"P  c #12567B",
"I  c #145479",
"U  c #1A517B",
"Y  c #10597C",
"T  c #145A7E",
"R  c #155B7F",
"E  c #105C7E",
"W  c #115D7F",
"Q  c #125C7F",
"!  c #135A7C",
"~  c #20426F",
"^  c #24406F",
"/  c #234271",
"(  c #234C75",
")  c #234479",
"_  c #254B7A",
"`  c #006276",
"'  c #006178",
"]  c #00617F",
"[  c #00637F",
"{  c #00677C",
"}  c #00667F",
"|  c #03637D",
" . c #09657E",
".. c #01687F",
"X. c #055F81",
"o. c #035F84",
"O. c #055880",
"+. c #0E5E81",
"@. c #0B5D82",
"#. c #135D80",
"$. c #125E82",
"%. c #1A5A80",
"&. c #1E5E84",
"*. c #185E83",
"=. c #026181",
"-. c #036280",
";. c #016282",
":. c #036781",
">. c #066581",
",. c #076682",
"<. c #006486",
"1. c #026484",
"2. c #086380",
"3. c #0D6080",
"4. c #0F6586",
"5. c #0A6483",
"6. c #006982",
"7. c #026A83",
"8. c #066883",
"9. c #006885",
"0. c #066885",
"q. c #016B81",
"w. c #03648B",
"e. c #0B658C",
"r. c #076888",
"t. c #026E8A",
"y. c #04688B",
"u. c #0E6A8F",
"i. c #116081",
"p. c #106785",
"a. c #136383",
"s. c #196285",
"d. c #13658D",
"f. c #126B8D",
"g. c #007087",
"h. c #00728A",
"j. c #00728C",
"k. c #0D6990",
"l. c #007990",
/* pixels */
"0 8 8 0 0 7 r l 3.2.:.7.8.N H 9 9 8 8 0 r e p ,.} } ,.p.i.i ",
"7 7 7 7 r 7 r s N x p p a r 7 = 0 0 0 D r e e x p p e a s 6 ",
"6 - e s l s s N e r 6 7 7 7 7 7 r e r l l s i $.Z 7 * 7 r 7 ",
"u e t x x u r r 6 * X O < 0 L N e e e a a e 7 7 q = X 7 D L ",
"N a p p a e & $ 6 * X O + 0 i x a a p p e $     9 O . = D L ",
"D 6 e a x h i i r 7 = O , 7 e e i r a x a r 7 0 0 = * = 7 7 ",
"8 = * e N W R %.s r 7 7 7 7 7 6 = = e a x s R &.r 7 6 r r 6 ",
"_ 8 * - - - $ $ s a a a l Y i 7 X X $ - - & - 7 a a a l Y i ",
"# @ X X O @ X * p t t p x h i 7 @ @ @ O X X 7 C } ' t a a l ",
"X.=.=.g 8 # # # , , = 6 e p [ [ 1.o.g 7 5 O < < , , ; 7 a =.",
"7.g.h.0.i 0 0 H q q , 8 D +.r.t.l.j.9.x i 0 8 , ^ ~ q H W 4.",
"r a -.| p p ' ..t 2 $ X O , 5 7 4.2.x a x | p p % % $ * = 5 ",
"0 7 e u s s p p 2 - $ = < O 5 = s r r r i a a t % $ $ - = = ",
"c t t e 0 9 < < , , 0 H R +.X.p ` t e ; , 8 9 9 / ( U R N X.",
"y t t - , < < q , = 7 e p p p u t 2 3 ; = , 9 q < 0 r a p p ",
"+ , ; ; $ ; r  .i. .} ..} l w ) > > > , ; e x ,...7.q.7.p r ",
"/ 9 8 7 e e e t p t e 6 7 7 7 ; 8 7 r p t t e a e r r 7 ; ; ",
"7 r i l i.s.s.*.a r e ; ; ; ; - 8 7 r h x a l *.r r 7 0 7 ; ",
"t t t t e 7 = X - * * % ; Z I I 0 Z i l s 6 = 8 ; $ = = 0 I ",
"5.5.5.2.x i 7 = = %   . , Z I R s s a a r $   . = % . = Z T ",
"* - - e e e e e I 0 1 = = ; ; - t t a x l r r I I 7 = ; 7 r ",
"q q H Y $.p.p.p.Y r r 7 7 7 ; - - - e a s s Y i.Y r 7 7 r r ",
"O X . $ $ $ $ $ t e e r r L r r , = = 7 ; - 6 r t e e r r s ",
", = *   X = O O ' ' p a s r r 6 + + O O X * * r [ | x B s i ",
"w.w.<.p 6 $ = < r - $ $ - u p :.y.e.@.6 X , : : 1 = & - p y.",
"e.k.u.e.h 7 1 1 Z 0 0 0 U *.d.f.y.y.5.u 7 V V ; ( q 0 L $.d.",
"u O.@.+.l r C A = % . . X = * * 1.1.-.x a s y e o . . * * 4 ",
"6 6 u s r r r C 1 1 , , , = * $ p p u e e r e t . = ; 7 7 4 ",
"$.#.i r - - - ; ; ; ; Z ! R W Y s r - ; ; ; ; 3 ; r Y W l i ",
"W s r ; = = ; 7 & & & - e e t t ! 7 = = 1 1 ; 0 & - e e t e "
};
