/* XPM */
static const char *MjVlNjhiMWZmYzc1OTdhMTU2NzA4Mzk4N2YzZDAwOTYxOGMzYTgwZV9ocSslMjgxJTI5[] = {
/* columns rows colors chars-per-pixel */
"32 32 223 2 ",
"   c #001A2F",
".  c #001C36",
"X  c #0F3B2E",
"o  c #002033",
"O  c #112B0E",
"+  c #1E5514",
"@  c #185C29",
"#  c #2F4224",
"$  c #396A3B",
"%  c #6B571C",
"&  c #4E7138",
"*  c #003D4C",
"=  c #00364E",
"-  c #003451",
";  c #003D53",
":  c #003D5C",
">  c #003E61",
",  c #05454D",
"<  c #004354",
"1  c #00435B",
"2  c #00495E",
"3  c #005E5E",
"4  c #0E5654",
"5  c #2B5B4B",
"6  c #17635A",
"7  c #2D6D52",
"8  c #28735A",
"9  c #3C6D4D",
"0  c #004463",
"q  c #004A66",
"w  c #00446C",
"e  c #004B6C",
"r  c #00546D",
"t  c #005261",
"y  c #004A72",
"u  c #035A75",
"i  c #05696E",
"p  c #08626A",
"a  c #01677C",
"s  c #046B7C",
"d  c #086275",
"f  c #146F7A",
"g  c #08757B",
"h  c #14747D",
"j  c #1A7476",
"k  c #0E6B6A",
"l  c #28756D",
"z  c #387A6C",
"x  c #256F7A",
"c  c #237275",
"v  c #277A7A",
"b  c #377E76",
"n  c #667B52",
"m  c #587F64",
"M  c #618C3D",
"N  c #7F8B39",
"B  c #26867D",
"V  c #399375",
"C  c #35936F",
"Z  c #478A5F",
"A  c #77855E",
"S  c #7B9E5E",
"D  c #7F9845",
"F  c #509D79",
"G  c #4C886E",
"H  c #6F8F78",
"J  c #6C9264",
"K  c #7DC37D",
"L  c #80943B",
"P  c #978A55",
"I  c #B09753",
"U  c #9F9E65",
"Y  c #878E62",
"T  c #8CB475",
"R  c #8BA76D",
"E  c #ADAC7E",
"W  c #B9AE79",
"Q  c #B9B67F",
"!  c #CBB677",
"~  c #B8CB64",
"^  c #AFD27E",
"/  c #BCD26D",
"(  c #ECE852",
")  c #F4E85E",
"_  c #E3CA6C",
"`  c #EBD37D",
"'  c #DBEC6A",
"]  c #EBE66A",
"[  c #FEEC62",
"{  c #E9F37B",
"}  c #F8FD7B",
"|  c #006682",
" . c #026D84",
".. c #006D8B",
"X. c #0E6E89",
"o. c #146D89",
"O. c #1A6E86",
"+. c #047483",
"@. c #0C7985",
"#. c #02758C",
"$. c #0C748D",
"%. c #057A8D",
"&. c #0C798C",
"*. c #097585",
"=. c #127684",
"-. c #1A7486",
";. c #12738C",
":. c #1C758C",
">. c #147B8D",
",. c #1C7B8B",
"<. c #177983",
"1. c #046E93",
"2. c #027594",
"3. c #0B7594",
"4. c #037B94",
"5. c #0B7A93",
"6. c #017599",
"7. c #0B7499",
"8. c #027B9C",
"9. c #0B7B9B",
"0. c #137594",
"q. c #1C7694",
"w. c #137A94",
"e. c #1B7C93",
"r. c #14769A",
"t. c #127B9C",
"y. c #1F7A99",
"u. c #227C86",
"i. c #22738A",
"p. c #2A768A",
"a. c #227D92",
"s. c #207490",
"d. c #0076A1",
"f. c #0076A6",
"g. c #0179A2",
"h. c #017AA5",
"j. c #007DA6",
"k. c #017CA3",
"l. c #0B7AA4",
"z. c #007DA9",
"x. c #007DAA",
"c. c #007FB3",
"v. c #008194",
"b. c #01819F",
"n. c #01829C",
"m. c #0A8295",
"M. c #1C8294",
"N. c #178499",
"B. c #258284",
"V. c #28838B",
"C. c #398C81",
"Z. c #37948A",
"A. c #2D859A",
"S. c #3B9B98",
"D. c #2F9597",
"F. c #0181A3",
"G. c #0B82A3",
"H. c #0182AC",
"J. c #1685A4",
"K. c #1494BB",
"L. c #3895A3",
"P. c #288EA5",
"I. c #449380",
"U. c #5B9A89",
"Y. c #449698",
"T. c #538E8E",
"R. c #55AA99",
"E. c #65AC95",
"W. c #67B49C",
"Q. c #77B89C",
"!. c #78A492",
"~. c #609DA2",
"^. c #49A8A9",
"/. c #50B0AE",
"(. c #43ACB5",
"). c #58B3B9",
"_. c #51ABAF",
"`. c #6BBAA9",
"'. c #68B9B3",
"]. c #79C192",
"[. c #77C5B7",
"{. c #4DBDCB",
"}. c #73CFCE",
"|. c #72CBD3",
" X c #8B9A83",
".X c #96B98C",
"XX c #82BA99",
"oX c #87B984",
"OX c #B1BE90",
"+X c #B3B18A",
"@X c #92B4A6",
"#X c #91CB99",
"$X c #BFDC80",
"%X c #A2C09A",
"&X c #BDD291",
"*X c #A7D289",
"=X c #BDE680",
"-X c #BDE994",
";X c #88CAA5",
":X c #8ECEB4",
">X c #A6DFB2",
",X c #A7C3B4",
"<X c #B2E8AA",
"1X c #CFC891",
"2X c #D5D098",
"3X c #E7D990",
"4X c #DCFB9D",
"5X c #F3FC8F",
"6X c #FFFE9A",
"7X c #E3FA8E",
"8X c #D6DAA7",
"9X c #F6FFA2",
"0X c #FFFFB6",
"qX c #8CDBCA",
"wX c #82C9C1",
"eX c #A3D7C0",
"rX c #92E9D9",
"tX c #BBEBD5",
"yX c #99F2EB",
"uX c #ABFFFF",
"iX c #A4FDFF",
"pX c #D6E4C3",
"aX c #EEF1C2",
/* pixels */
". q 0 1 1 1 q 0 : : : : > 0 0 1 < , ; ; : : 0 0 e e 1 1 < 1 2   ",
"q q.q.;.$.$.w.0.q.q.q.q.q.r.w.w.,.:.:.q.q.q.r.t.2.9.#.$.;.:.p.2 ",
"0 :.0.;.5.2.t.3.0.0.0.0.0.3.5.5.5.0.0.0.0.r.7.7.6.9.2.5.;.:.i.1 ",
": o.;.$.5.2.9.2.2.3.7.3.2.2.2.2.2.2.7.7.7.7.7.7.2.9.#.5.&.;.O.; ",
": :.0.w.9.8.G.8.l.l.l.l.k.k.b.F.F.z.z.x.l.l.l.l.8.G.4.9.5.>.:.1 ",
": o.;.3.8.6.j.6.d.d.d.d.6.8.8.8.j.z.x.f.f.d.d.6.2.8.2.4.%.$.;.1 ",
"1 :.w.5.k.8.H.j.z.j.h.h.k.8.b.b.H.H.x.z.x.h.h.l.8.F.4.9.5.9.w.q ",
"1 o.$.2.8.6.F.g.z.h.g.8.8.4.4.v.b.F.j.j.h.g.g.g.6.8.2.4.#.2.$.1 ",
": q.3.2.F.k.j.j.6.H.6.G.a N.N.g %.v.#.4.9.9.l.6.g.8.8.F.2.4.w.1 ",
"1 e.3.2.F.8.j.k.K...| e.,.h j B g g g @.s a 2.G.g.k.8.F.2.4.w.0 ",
"1 w.5.2.F.8.k.k...| a.j Y.wX:X[.V C V C.B.=.#.G.g.k.g.F.2.4.w.1 ",
"1 >.5.#.b.8.8.8.J.e.x , G tX!.$ #XK ].].`.^.>.#.8.j.h.H.6.7.w.1 ",
"< >.&.#.b.4.8.4.| p.~.!.H .XA &X4X=X-X*X;X`.B.#.8.j.h.H.6.7.q.1 ",
"< >.%.#.n.4.4.5.:.x T.,XpXaX2X0X{ ' 7X^ oXW.B.&.8.z.h.H.6.7.q.: ",
"< >.%.#.n.4.4.$.u.~.@X X+XP I _ ) ( } ~ T XXC.&.8.z.x.H.6.7.q.: ",
"< >.@.+.m.%.@.h c U.@XA E % I _ [ ( } ~ *X>XI.i %.8.8.k.2.0.q.: ",
"* ,.<.i D./.S.C.U.XX%XOXQ ! ! ` ] ] { / *X<X;XW.Z.g g >.=.a.:.< ",
"* f h B.}.yXrXqXQ.G & S 8X1XW 3X6X5X9X1XM + @ F `.B v u.f :.-.; ",
"t -.h h ^./.Z.C.E.7 9 J n Y E U L L Y & & J Z 8 R.rXuX).d a.A.- ",
"< =.>.s =.i 3 j Y.6 U.eXG O # & R S T .X#X#XZ 8 qXY.}.uX|.d q u ",
"= *.N.&.w.*.@.(.S.}.'.b z 5 X 5 XX;X:X;XQ.E.z 6 6 c Y.L.a.P.y.- ",
"q w.w.#.m.%.#.P.{.(.h p v 6 4 T.6 l v 4 l [.[.R.c j V.-.u X.r.e ",
"q 9.5...G.G.2.G.....N.N.a e.A.r M.a =.,.u.V.).iX|.u.d e.N.N.3.w ",
": 9.G.2.F.F.2.F.F.6.8.k.8.2.3.9.G.2.G.4. .*.M.(.L.f =.M.$.9.8.e ",
"0 2.2.2.6.6.j.8.j.j.j.j.g.g.g.h.x.z.j.k.8.4.%.@.g @.+.#.#.4.2.e ",
"q 9.9.9.k.g.H.z.z.z.z.z.j.j.j.z.c.c.H.z.k.8.4.4.%.m.%.5.4.9.9.r ",
"1 $.3.2.8.6.j.6.g.g.g.g.g.g.g.h.x.x.x.h.g.8.4.4.#.4.#.4.#.4.2.0 ",
"1 ;.w.w.t.9.G.8.j.j.j.j.j.k.k.j.z.x.z.j.j.F.8.8.4.m.4.5.5.5.5.2 ",
"1 ;.;.$.3.2.9.2.6.6.2.2.2.2.2.2.6.6.6.6.6.6.6.6.2.9.#.3.$.;.;.1 ",
"1 :.;.;.0.$.t.3.9.5.5.5.5.&.&.&.0.0.0.7.7.9.8.8.6.9.2.0.;.:.i.1 ",
"2 :.:.;.;.X.e.;.w.w.w.w.>.>.>.,.i.i.s.q.r.t.l.l.7.t.$.;.O.i.p.1 ",
"o 2 1 < 1 ; q 1 1 1 1 < < < < < * ; ; : 0 0 w w w y > 1 : 1 1   "
};
